<?xml version="1.0" encoding="UTF-8" standalone="no"?>
<!-- Created with Inkscape (http://www.inkscape.org/) -->

<svg
   xmlns:dc="http://purl.org/dc/elements/1.1/"
   xmlns:cc="http://creativecommons.org/ns#"
   xmlns:rdf="http://www.w3.org/1999/02/22-rdf-syntax-ns#"
   xmlns:svg="http://www.w3.org/2000/svg"
   xmlns="http://www.w3.org/2000/svg"
   xmlns:sodipodi="http://sodipodi.sourceforge.net/DTD/sodipodi-0.dtd"
   xmlns:inkscape="http://www.inkscape.org/namespaces/inkscape"
   width="500"
   height="220"
   viewBox="0 0 92.600198 40.744087"
   version="1.1"
   id="svg9532"
   inkscape:version="0.92.2 (5c3e80d, 2017-08-06)"
   sodipodi:docname="matt_logo_01.svg"
   inkscape:export-filename="C:\Users\matt\Documents\matt_logo_01.png"
   inkscape:export-xdpi="96"
   inkscape:export-ydpi="96">
  <defs
     id="defs9526" />
  <sodipodi:namedview
     id="base"
     pagecolor="#ffffff"
     bordercolor="#666666"
     borderopacity="1.0"
     inkscape:pageopacity="0.0"
     inkscape:pageshadow="2"
     inkscape:zoom="0.98994949"
     inkscape:cx="-170.0851"
     inkscape:cy="-204.49007"
     inkscape:document-units="mm"
     inkscape:current-layer="layer1"
     showgrid="false"
     inkscape:pagecheckerboard="true"
     units="px"
     viewbox-width="105.83"
     scale-x="0.69997"
     fit-margin-top="0"
     fit-margin-left="0"
     fit-margin-right="0"
     fit-margin-bottom="0"
     inkscape:window-width="3840"
     inkscape:window-height="2066"
     inkscape:window-x="-11"
     inkscape:window-y="-11"
     inkscape:window-maximized="1" />
  <metadata
     id="metadata9529">
    <rdf:RDF>
      <cc:Work
         rdf:about="">
        <dc:format>image/svg+xml</dc:format>
        <dc:type
           rdf:resource="http://purl.org/dc/dcmitype/StillImage" />
        <dc:title />
      </cc:Work>
    </rdf:RDF>
  </metadata>
  <g
     inkscape:label="Layer 1"
     inkscape:groupmode="layer"
     id="layer1"
     transform="translate(-9.6609918,-251.79308)">
    <text
       id="text1136"
       y="265.76389"
       x="98.306549"
       style="font-style:normal;font-weight:normal;font-size:8.13461971px;line-height:1.25;font-family:sans-serif;letter-spacing:0px;word-spacing:0px;fill:#000000;fill-opacity:1;stroke:none;stroke-width:0.74172366;stroke-miterlimit:4;stroke-dasharray:none"
       xml:space="preserve"><tspan
         style="font-style:normal;font-variant:normal;font-weight:bold;font-stretch:normal;font-size:17.35385704px;font-family:sans-serif;-inkscape-font-specification:'sans-serif Bold';text-align:end;text-anchor:end;fill:#ffffff;fill-opacity:1;stroke:none;stroke-width:0.74172366;stroke-miterlimit:4;stroke-dasharray:none;stroke-opacity:0.99507392"
         y="265.76389"
         x="98.306549"
         id="tspan1134"
         sodipodi:role="line">matt</tspan><tspan
         id="tspan1138"
         style="font-size:17.35385704px;text-align:end;text-anchor:end;fill:#ffffff;fill-opacity:1;stroke:none;stroke-width:0.74172366;stroke-miterlimit:4;stroke-dasharray:none;stroke-opacity:0.99507392"
         y="287.45621"
         x="98.306549"
         sodipodi:role="line">.guide</tspan></text>
    <g
       id="g2182"
       transform="translate(0.93540326)">
      <path
         inkscape:connector-curvature="0"
         id="path1585"
         d="m 30.551316,287.11518 c 1.883391,-0.19619 3.788748,-0.73469 5.067263,-1.43218 0.976686,-0.53283 1.871015,-1.36246 2.178587,-2.021 l 0.159632,-0.3418 0.04798,-5.89649 c 0.02638,-3.24308 0.04101,-7.69332 0.03248,-9.88945 l -0.0155,-3.99296 -0.292275,0.21938 c -0.160752,0.1207 -0.584556,0.37103 -0.941782,0.55641 -3.383642,1.75591 -9.074866,2.14177 -13.549775,0.91868 -1.322823,-0.36156 -2.595411,-0.93099 -3.354472,-1.501 l -0.276936,-0.20797 0.01712,9.86119 0.01715,9.86118 0.172844,0.35521 c 0.787757,1.61893 3.284435,2.93176 6.484577,3.40978 0.906833,0.13546 3.362486,0.19378 4.253127,0.10109 z m -7.960642,-7.0818 c -0.155487,-0.19035 -0.189509,-0.29537 -0.189509,-0.58497 0,-0.2896 0.03403,-0.39462 0.189509,-0.58497 l 0.18951,-0.23201 5.704743,-0.0199 c 3.137608,-0.0103 5.772999,-0.001 5.856419,0.0207 0.08342,0.0223 0.22225,0.12392 0.308512,0.22567 0.127777,0.1508 0.156459,0.25888 0.154775,0.58322 -0.0024,0.43588 -0.07531,0.58791 -0.361313,0.752 -0.165615,0.095 -0.890494,0.10612 -5.925919,0.0903 l -5.737217,-0.018 z m 0.136147,-2.62754 c -0.275424,-0.15109 -0.388384,-0.37967 -0.389651,-0.78846 -7.36e-4,-0.25744 0.0359,-0.34934 0.219875,-0.55057 l 0.220832,-0.24154 h 5.725358 c 4.979615,0 5.750071,0.0139 5.915063,0.10727 0.253955,0.14366 0.323452,0.30754 0.323452,0.76277 0,0.3249 -0.02675,0.40968 -0.178614,0.5661 -0.09825,0.1012 -0.237069,0.19938 -0.308516,0.21819 -0.07144,0.0189 -2.643482,0.0378 -5.71564,0.0423 -5.197029,0.008 -5.601493,-4e-4 -5.812159,-0.11606 z m 10.41922,-2.89229 c -0.477262,-0.21812 -0.58558,-1.32703 -0.173639,-1.7776 0.15453,-0.16903 0.201457,-0.17862 0.873894,-0.17862 0.698793,0 0.713747,0.003 0.900448,0.20766 0.177968,0.19465 0.189857,0.24299 0.189857,0.77188 0,0.60443 -0.111914,0.87715 -0.414911,1.01105 -0.229903,0.10162 -1.127172,0.0791 -1.375649,-0.0344 z m -10.275605,-0.0385 c -0.116988,-0.078 -0.243751,-0.22975 -0.281693,-0.33719 -0.110129,-0.31183 -0.03221,-0.78829 0.164008,-1.0029 l 0.170967,-0.18702 h 4.218829 4.218825 l 0.170971,0.18702 c 0.196218,0.21461 0.274136,0.69107 0.164008,1.0029 -0.03794,0.10741 -0.164705,0.25917 -0.281691,0.33719 -0.206605,0.13779 -0.329252,0.14184 -4.272113,0.14184 -3.94286,0 -4.065511,-0.004 -4.272111,-0.14184 z m 6.764067,-2.96728 c -0.413864,-0.36669 -0.362571,-1.20673 0.08737,-1.43099 0.102077,-0.0508 0.950583,-0.077 2.494856,-0.077 h 2.340156 l 0.189853,0.20766 c 0.165067,0.18054 0.189856,0.26009 0.189856,0.6093 0,0.34924 -0.02477,0.42879 -0.189856,0.60934 l -0.189853,0.20766 -2.391925,-10e-4 c -2.168224,-0.001 -2.404881,-0.013 -2.530463,-0.12431 z m -6.913584,-0.0817 c -0.165066,-0.18055 -0.189855,-0.2601 -0.189855,-0.60933 0,-0.34922 0.02477,-0.42876 0.189855,-0.60931 l 0.189857,-0.20763 h 2.374662 2.374664 l 0.199887,0.19535 c 0.236998,0.23165 0.320311,0.67318 0.1913,1.01385 -0.163105,0.43069 -0.124709,0.42476 -2.746803,0.42476 h -2.39371 z"
         style="opacity:1;fill:#ffffff;fill-opacity:1;stroke-width:0.067928" />
      <path
         inkscape:connector-curvature="0"
         id="path1587"
         d="m 18.294745,280.50025 -0.01794,-1.08169 -0.357225,-0.079 c -2.62216,-0.58048 -4.48236,-3.05723 -4.480239,-5.96517 10e-4,-1.61038 0.791357,-3.45271 1.926892,-4.49261 0.653615,-0.59856 1.598707,-1.12379 2.328961,-1.2943 0.691642,-0.1615 0.614088,-0.0129 0.614088,-1.17656 0,-1.19777 0.07787,-1.11554 -0.844356,-0.89168 -2.761225,0.6702 -4.993256,3.00453 -5.691984,5.95283 -0.204603,0.86333 -0.274486,2.26942 -0.156709,3.153 0.09396,0.7049 0.395404,1.77545 0.668031,2.37246 0.640236,1.40204 1.750212,2.69143 3.016658,3.50432 0.735121,0.47183 1.870656,0.90251 2.734019,1.03693 l 0.277734,0.0433 z"
         style="opacity:1;fill:#ffffff;fill-opacity:1;stroke-width:0.067928" />
      <path
         inkscape:connector-curvature="0"
         id="path1589"
         d="m 30.065316,264.41101 c 3.689782,-0.21933 6.939513,-1.41018 7.694707,-2.81969 0.315164,-0.58823 0.190975,-1.08464 -0.428211,-1.71166 -0.442296,-0.44788 -0.955864,-0.77738 -1.768194,-1.13442 l -0.574565,-0.25256 -0.27596,0.24735 c -0.151778,0.13603 -0.496666,0.35886 -0.76642,0.49519 -0.510653,0.25805 -0.801863,0.55292 -0.866604,0.87746 -0.02084,0.10444 -0.04781,0.22609 -0.05997,0.27034 -0.0366,0.1333 0.09945,0.61992 0.217338,0.77743 0.15899,0.21244 0.436352,0.39689 0.677815,0.45076 l 0.209461,0.0468 0.01854,0.77103 0.01854,0.77101 -0.398855,-0.0396 c -1.656376,-0.16427 -2.668041,-2.2384 -1.914018,-3.92412 0.187062,-0.41819 0.665956,-0.97919 0.992148,-1.16222 l 0.22287,-0.1251 -0.712614,-0.11824 c -0.391936,-0.0651 -1.124714,-0.15681 -1.628394,-0.20399 -0.899193,-0.0842 -0.918449,-0.083 -1.063199,0.0657 -0.08109,0.0832 -0.368502,0.2617 -0.638708,0.39638 -0.535305,0.26683 -0.793862,0.53962 -0.908656,0.95871 -0.159812,0.58342 0.24057,1.292 0.79803,1.41232 l 0.278105,0.06 0.01854,0.77029 0.01854,0.77031 -0.375748,-0.0303 c -1.42445,-0.11477 -2.495264,-1.7859 -2.133628,-3.32989 0.05835,-0.24911 0.178346,-0.59435 0.266664,-0.76718 l 0.160575,-0.31426 -0.623196,0.0501 c -1.011106,0.0812 -1.329922,0.15629 -1.444513,0.34029 -0.218207,0.3504 -0.587055,0.66094 -1.094268,0.92129 -0.549835,0.2822 -0.837993,0.56852 -0.903706,0.89793 -0.02084,0.10445 -0.04781,0.2261 -0.05996,0.27035 -0.03659,0.1333 0.09945,0.61992 0.217334,0.77743 0.158995,0.21244 0.436354,0.39689 0.67782,0.45075 l 0.209458,0.0468 0.01854,0.77102 0.01854,0.77101 -0.398858,-0.0396 c -1.585448,-0.15725 -2.616824,-2.11589 -1.985056,-3.76972 0.05469,-0.14317 0.08549,-0.26031 0.06842,-0.26031 -0.08068,0 -0.878963,0.4752 -1.206447,0.71818 -0.434727,0.32254 -0.73188,0.69708 -0.872442,1.09966 -0.164501,0.47113 -0.0442,0.81256 0.485406,1.37754 1.498754,1.59885 5.70317,2.61385 9.814878,2.36943 z"
         style="opacity:1;fill:#ffffff;fill-opacity:1;stroke-width:0.067928" />
    </g>
  </g>
</svg>
